<?xml version="1.0" encoding="iso-8859-1"?>
<!-- Generator: Adobe Illustrator 16.0.0, SVG Export Plug-In . SVG Version: 6.00 Build 0)  -->
<!DOCTYPE svg PUBLIC "-//W3C//DTD SVG 1.1//EN" "http://www.w3.org/Graphics/SVG/1.1/DTD/svg11.dtd">
<svg version="1.1" id="Capa_1" xmlns="http://www.w3.org/2000/svg" xmlns:xlink="http://www.w3.org/1999/xlink" x="0px" y="0px"
	 width="190.646px" height="190.646px" viewBox="0 0 190.646 190.646" style="enable-background:new 0 0 190.646 190.646;"
	 xml:space="preserve">
<g>
	<path d="M169.689,128.82c-3.385-12.035-10.968-22.961-21.482-29.725c-6.431-4.136-16.755-5.714-23.87-2.012
		c-0.656-0.164-1.342-0.253-2.071-0.146c-3.92,0.573-7.428,1.904-10.616,3.714c-0.016-0.16,0.009-0.323-0.025-0.48
		c-2.753-12.598-16.987-19.653-28.817-20.611c-14.245-1.153-28.051,7.897-38.335,16.674c-10.686,9.119-34.225,40.714-22.267,55.795
		c-0.162,0.665-0.317,1.331-0.482,1.995c-0.432,1.751,1.409,3.155,2.848,2.862c0.002,1.968,1.322,3.955,3.977,4.247
		c14.666,1.614,29.199,4.351,43.876,5.788c6.931,0.68,16.549,1.937,23.928-0.514c8.193,15.527,24.347,26.535,42.449,23.83
		C167.219,185.992,176.304,152.338,169.689,128.82z M133.073,179.479c-16.062,1.058-27.12-16.063-30.503-29.562
		c-2.006-7.998-0.864-16.619,2.554-24.042c4.269-9.27,12.579-13.014,19.501-19.258c7.736-0.039,13.757-2.12,21.271,3.794
		c7.466,5.874,11.511,15.315,13.883,24.217C164.741,153.245,154.583,178.062,133.073,179.479z"/>
	<path d="M155.269,141.964c-0.358-1.148-1.052-1.915-1.871-2.522c0.435-1.913-0.419-3.892-2.107-5.011
		c-2.633-1.745-5.393-0.944-8.285-0.464c-1.795,0.3-3.615,0.486-5.437,0.657c0.005-0.352,0.002-0.729,0.005-1.093
		c0.523-3.694,0.834-7.59-0.651-10.701c-0.348-0.729-0.873-1.246-1.467-1.631c-0.838-1.566-1.963-2.905-3.576-3.777
		c-2.812-1.521-5.866,2.186-3.467,4.494c-0.057-0.054-0.158,0.72-0.271,1.774c-1.496,3.215-1.541,7.774-1.59,11.665
		c-2.414,0.129-4.828,0.264-7.241,0.313c-1.549,0.033-3.085,0.117-4.624,0.303c-2.55,0.309-2.035,0.736-1.542,1.455
		c-0.594-0.668-1.723-0.923-2.365-0.143c-1.979,2.404-0.108,4.112,2.67,5.278c-3.666,1.183-2.064,6.092,1.55,5.602
		c3.6-0.487,7.254-0.625,10.915-0.647c-0.435,3.559-0.743,7.098-0.062,10.687c0.159,0.836,0.597,1.497,1.148,2.038
		c1.076,3.371,5.656,3.357,6.835,0.058c0.268-0.281,0.523-0.584,0.705-0.961c1.697-3.513,2.373-7.545,2.675-11.623
		c1.269,0.043,2.54,0.089,3.799,0.121C144.536,147.932,157.638,149.546,155.269,141.964z"/>
	<path d="M114.547,33.332C113.293,18.065,102.74,1.474,86.256,0.112c-20.999-1.734-38.889,16.927-41.316,36.7
		c-2.703,22.026,17.627,37.683,37.916,36.174c1.14,1.235,2.864,1.857,5.002,1.112C105.716,67.877,116.104,52.285,114.547,33.332z"/>
</g>
<g>
</g>
<g>
</g>
<g>
</g>
<g>
</g>
<g>
</g>
<g>
</g>
<g>
</g>
<g>
</g>
<g>
</g>
<g>
</g>
<g>
</g>
<g>
</g>
<g>
</g>
<g>
</g>
<g>
</g>
</svg>
