<?xml version="1.0" encoding="iso-8859-1"?>
<!-- Generator: Adobe Illustrator 16.0.0, SVG Export Plug-In . SVG Version: 6.00 Build 0)  -->
<!DOCTYPE svg PUBLIC "-//W3C//DTD SVG 1.1//EN" "http://www.w3.org/Graphics/SVG/1.1/DTD/svg11.dtd">
<svg version="1.1" id="Capa_1" xmlns="http://www.w3.org/2000/svg" xmlns:xlink="http://www.w3.org/1999/xlink" x="0px" y="0px"
	 width="187.423px" height="187.423px" viewBox="0 0 187.423 187.423" style="enable-background:new 0 0 187.423 187.423;"
	 xml:space="preserve">
<g>
	<path d="M164.368,141.936c-0.823-1.147-2.042-1.46-3.152-1.26C133,109.212,105.985,76.611,77.023,45.833
		C60.119,27.867,50.699-1.279,21.61,0.586c-0.443-0.432-1.066-0.697-1.86-0.541c-29.841,5.847-5.232,37.502,5.51,50.224
		c32.645,38.663,69.305,73.728,102.137,112.211c0.772,0.905,1.707,1.034,2.543,0.762c10.395,14.045,31.955,19.936,48.037,24.076
		c2.012,0.518,3.748-0.958,3.871-2.948C182.86,167.906,173.555,154.738,164.368,141.936z M20.834,3.978
		c0.337-0.105,0.601-0.266,0.815-0.456c5.939,0.698,11.026,2.585,15.557,5.289c-4.134,0.968-8.428,4.305-11.705,6.526
		c-4.4,2.983-8.061,7.329-9.928,12.328C9.759,17.242,8.731,7.77,20.834,3.978z M17.564,30.988c0.358-0.121,0.675-0.368,0.866-0.804
		c2.341-5.343,6.869-8.391,11.652-11.394c3.367-2.114,8.782-3.564,10.675-7.253c0.051-0.1,0.038-0.213,0.072-0.318
		c0.996,0.737,1.916,1.588,2.861,2.402c-5.629,3.137-10.769,7.889-15.539,11.923c-3.096,2.619-6.906,5.839-8.161,9.029
		C19.146,33.377,18.324,32.18,17.564,30.988z M48.218,32.478c-0.304-0.19-0.596-0.395-0.906-0.576
		c-0.15-0.088-0.3-0.143-0.451-0.202c0.034-0.126,0.051-0.252,0.063-0.378c0.679-0.639,1.391-1.238,2.105-1.835
		c0.015,0.334,0.115,0.666,0.25,1.004C48.711,30.985,48.313,31.689,48.218,32.478z M25.678,41.967
		c-1.569-1.914-3.114-3.855-4.559-5.821c0.421-0.42,1.768-0.563,2.644-1.287c2.503-2.068,5.008-4.131,7.54-6.164
		c5.13-4.119,10.745-7.719,15.867-11.845c1.761,1.779,3.448,3.68,5.092,5.655C41.501,26.427,32.169,32.229,25.678,41.967z
		 M132.162,161.123c-0.07-0.061-0.152-0.086-0.228-0.132c0.053-0.243,0.069-0.494,0.062-0.746c0.65,0.186,1.332,0.176,1.97-0.066
		c0.204,0.812,0.468,1.639,0.603,2.48c0.029,0.178,0.098,0.311,0.162,0.446C133.873,162.446,132.973,161.831,132.162,161.123z
		 M161.618,157.166c-3.122,1.328-5.859,4.148-7.196,7.242c-0.606,1.404-0.907,2.907-0.878,4.392
		c-1.252,1.817-0.727,3.896,1.091,5.051c-6.806-2.612-13.286-5.854-18.94-10.003c0.921,0.144,2.072-0.53,2.164-1.633
		c0.074-0.899-0.293-2.223,0.104-3.05c0.21-0.436,7.322,0.445,8.445,0.58c1.612,0.193,3.139-1.854,2.55-3.347
		c-1.227-3.104-2.885-7.443-0.162-10.212c2.426-2.467,6.705-0.333,9.543-0.58c0.018-0.002,0.032-0.01,0.049-0.012
		c0.521,0.421,1.072,0.638,1.612,0.626c2.211,3.097,4.408,6.238,6.453,9.448C164.68,155.966,162.903,156.619,161.618,157.166z"/>
</g>
<g>
</g>
<g>
</g>
<g>
</g>
<g>
</g>
<g>
</g>
<g>
</g>
<g>
</g>
<g>
</g>
<g>
</g>
<g>
</g>
<g>
</g>
<g>
</g>
<g>
</g>
<g>
</g>
<g>
</g>
</svg>
